<svg xmlns="http://www.w3.org/2000/svg" id="Layer_1" data-name="Layer 1" viewBox="0 0 450 395.72"><path id="U" d="M331.34,125.36V231.25A99.62,99.62,0,0,1,302,302.16l-45.63,45.63-45.63-45.63a99.66,99.66,0,0,1-29.37-70.91V125.36l-75-12.5V231.25a174.14,174.14,0,0,0,51.34,123.94l45.63,45.63,53,53,53-53L355,355.19a174.13,174.13,0,0,0,51.33-123.94V112.86Z" transform="translate(-31.34 -58.14)" fill="#fafafa"></path><path id="T" d="M481.34,58.14,297.82,131.55a21,21,0,0,0-7,4.61l-34.48,34.48-34.47-34.48a21,21,0,0,0-7-4.61L31.34,58.14h0A66.24,66.24,0,0,0,63.5,114.93l155.34,93.21V242.9a57.85,57.85,0,0,0,16.95,40.91l20.55,20.56,20.56-20.56a57.84,57.84,0,0,0,16.94-40.91V208.14l155.35-93.21a66.23,66.23,0,0,0,32.15-56.79Z" transform="translate(-31.34 -58.14)" fill="#dc1e3a"></path></svg>