<?xml version="1.0" encoding="utf-8"?>
<svg id="Layer_1" data-name="Layer 1" xmlns="http://www.w3.org/2000/svg" viewBox="0 0 921 168.69"><defs><style>.cls-1{opacity:0.4;}.cls-2{fill:none;stroke:#5e5e5e;stroke-miterlimit:10;}</style></defs><g class="cls-1"><path class="cls-2" d="M3.5,79.94V53.62H24.63V78.31a17.47,17.47,0,0,0,.74,5.22,15.07,15.07,0,0,0,2.44,4.67A11.39,11.39,0,0,0,33,91.8a24,24,0,0,0,8.49,1.33A23.4,23.4,0,0,0,49.9,91.8a11.61,11.61,0,0,0,5.23-3.6,14.59,14.59,0,0,0,2.48-4.67,17.47,17.47,0,0,0,.74-5.22V53.62H79.41V79.94a35.77,35.77,0,0,1-.74,7.26A27.94,27.94,0,0,1,75.55,95a25.65,25.65,0,0,1-6.15,7.34,31.06,31.06,0,0,1-10.6,5.23,53.17,53.17,0,0,1-15.72,2.11h-3A55.06,55.06,0,0,1,24,107.55a31.62,31.62,0,0,1-10.71-5.23A24.89,24.89,0,0,1,7.17,95a26.86,26.86,0,0,1-3-7.75A38.06,38.06,0,0,1,3.5,79.94Z" transform="translate(-3 -52.16)"/><path class="cls-2" d="M85.93,53.62H109.5l32,31.36V53.62h20.9v55.15H141.38L106.83,75.34v33.43H85.93Z" transform="translate(-3 -52.16)"/><path class="cls-2" d="M169.55,108.77V53.62h51.89q11.12,0,15.75,3.52a10.84,10.84,0,0,1,4.63,9V67a9.44,9.44,0,0,1-3,7.31,14.5,14.5,0,0,1-6.53,3.52,19.77,19.77,0,0,1,4.12,1.41,23.89,23.89,0,0,1,4,2.44,10.67,10.67,0,0,1,3.34,4.23A14.51,14.51,0,0,1,245,92v.88q0,15.94-23.28,15.94Zm45.51-42.62H190.6v7.78h24.46c3.76,0,5.63-1.28,5.63-3.85v-.15C220.69,67.41,218.82,66.15,215.06,66.15Zm1.33,20.16H190.6V95.8h25.79q6.53,0,6.53-4.74v-.23Q222.92,86.32,216.39,86.31Z" transform="translate(-3 -52.16)"/><path class="cls-2" d="M270.51,89.87v18.9h-21V53.62h50.11q23.19,0,23.2,14.16v.82a11.6,11.6,0,0,1-1.11,5.11,10.38,10.38,0,0,1-2.93,3.71,18.77,18.77,0,0,1-3.56,2.22,19.78,19.78,0,0,1-3.52,1.26,15.35,15.35,0,0,1,8.3,4.56A12.29,12.29,0,0,1,323,94v8.16c0,2.86.35,4.94,1,6.22v.37h-21.5a4.49,4.49,0,0,1-.67-2.89V99.43q0-4.89-2.55-7.23t-8.64-2.33Zm0-22.83v9.49h24.16q6.38,0,6.38-4.75v-.07q0-4.67-6.38-4.67Z" transform="translate(-3 -52.16)"/><path class="cls-2" d="M328.77,53.62h61V67.11H349.53V74H389V87.42H349.53V95h40.84v13.79h-61.6Z" transform="translate(-3 -52.16)"/><path class="cls-2" d="M453.23,108.77l-4.3-8.89h-31.5l-4.23,8.89H391.85l27.28-55.15h28.32l28.84,55.15Zm-11-22.68-9.27-19-9,19Z" transform="translate(-3 -52.16)"/><path class="cls-2" d="M499.71,108.77h-21V53.62h21V75.41l27.13-21.79H553l-32.1,25.06,33.14,30.09H526.62L499.71,84.09Z" transform="translate(-3 -52.16)"/><path class="cls-2" d="M613.57,108.77l-4.3-8.89h-31.5l-4.23,8.89H552.19l27.28-55.15h28.32l28.83,55.15Zm-11-22.68-9.27-19-9,19Z" transform="translate(-3 -52.16)"/><path class="cls-2" d="M639,108.77V53.62h51.89q11.11,0,15.75,3.52a10.84,10.84,0,0,1,4.63,9V67a9.44,9.44,0,0,1-3,7.31,14.45,14.45,0,0,1-6.53,3.52,19.77,19.77,0,0,1,4.12,1.41,23.89,23.89,0,0,1,4,2.44,10.67,10.67,0,0,1,3.34,4.23A14.51,14.51,0,0,1,714.46,92v.88q0,15.94-23.28,15.94Zm45.51-42.62H660.05v7.78h24.46q5.64,0,5.64-3.85v-.15Q690.15,66.15,684.51,66.15Zm1.34,20.16h-25.8V95.8h25.8c4.34,0,6.52-1.58,6.52-4.74v-.23C692.37,87.82,690.19,86.31,685.85,86.31Z" transform="translate(-3 -52.16)"/><path class="cls-2" d="M718.91,53.62H740V93h38.25v15.79h-59.3Z" transform="translate(-3 -52.16)"/><path class="cls-2" d="M783.77,53.62h61V67.11H804.52V74H844V87.42H804.52V95h40.85v13.79h-61.6Z" transform="translate(-3 -52.16)"/><path class="cls-2" d="M889.33,109.81h-6.75q-33.66,0-33.65-19.57V89.5h23.13q.59,7.78,13.78,7.78h.67a49.19,49.19,0,0,0,7-.41,12,12,0,0,0,4.15-1.18,4.78,4.78,0,0,0,1.82-1.63,4,4,0,0,0,.48-2V92a3.7,3.7,0,0,0-.78-2.48c-.52-.62-1.75-1.16-3.7-1.63a43.69,43.69,0,0,0-8.49-.86l-10.23-.29Q849.74,86,849.74,70.15v-.67a15.62,15.62,0,0,1,.82-5.22,12.58,12.58,0,0,1,3-4.56A17,17,0,0,1,859.16,56a41.13,41.13,0,0,1,9.15-2.41,83.49,83.49,0,0,1,13.16-.92h6.6q33.49,0,33.5,17.42v.59h-22.9q-.67-5.85-13.35-5.86h-.74a39.49,39.49,0,0,0-8,.63c-1.88.42-3,.89-3.49,1.41a3.05,3.05,0,0,0-.66,2V69A2.9,2.9,0,0,0,873.2,71a7.57,7.57,0,0,0,3.52,1.45,39.1,39.1,0,0,0,7.71.7l9.94.22q15.63.45,22.38,4.34T923.5,90v1a19.45,19.45,0,0,1-.74,5.52,14,14,0,0,1-3,5,17.73,17.73,0,0,1-5.89,4.3,39.45,39.45,0,0,1-9.93,2.82A88.39,88.39,0,0,1,889.33,109.81Z" transform="translate(-3 -52.16)"/><path class="cls-2" d="M48,220.34v-75H3.5V117.17H131.91v28.15H87.4v75Z" transform="translate(-3 -52.16)"/><path class="cls-2" d="M142.17,117.17H256.3v25.24H181v12.9h73.77v25.1H181v14.14h76.41v25.79H142.17Z" transform="translate(-3 -52.16)"/><path class="cls-2" d="M375,220.34l-8-16.64H308l-7.9,16.64H260.18l51-103.17h53l53.95,103.17Zm-20.66-42.43L337,142.41l-16.91,35.5Z" transform="translate(-3 -52.16)"/><path class="cls-2" d="M422.56,220.34V117.17h54.09l31.61,58,32.18-58H592.3V220.34h-39V156l-36.19,64.34H497L461,156v64.34Z" transform="translate(-3 -52.16)"/></g></svg>