<svg id="Layer_1" data-name="Layer 1" xmlns="http://www.w3.org/2000/svg" width="200px" height="200px" viewBox="0 0 447.15 449.41"><defs><style>.cls-1{fill:#fafbfb;}</style></defs><path class="cls-1" d="M43.69,235.07l-11.35-2L34,223.92l10.65,1.91a7.56,7.56,0,0,0,2.31.09,6.6,6.6,0,0,0,2.21-.7,5,5,0,0,0,2-2,10.33,10.33,0,0,0,1.23-3.56A10.23,10.23,0,0,0,52.4,216a5.17,5.17,0,0,0-1.15-2.53A6.34,6.34,0,0,0,49.43,212a7.91,7.91,0,0,0-2.2-.73l-10.65-1.91,1.63-9.08,11.35,2a15.32,15.32,0,0,1,3.08.88,12,12,0,0,1,3.11,1.94,11.18,11.18,0,0,1,2.69,3.23,13.65,13.65,0,0,1,1.44,5,23.84,23.84,0,0,1-.3,7l-.23,1.28a24.39,24.39,0,0,1-2.16,6.77,13.8,13.8,0,0,1-3.08,4.22,10.85,10.85,0,0,1-3.66,2.08,11.91,11.91,0,0,1-3.57.7A16.72,16.72,0,0,1,43.69,235.07Z" transform="translate(-32.34 -31.27)"/><path class="cls-1" d="M40.93,190.59,44.67,181l17.88-8.12-12.81-5,3.3-8.55,22.54,8.73-3.33,8.61-19.13,8.82,13.66,5.29-3.31,8.55Z" transform="translate(-32.34 -31.27)"/><path class="cls-1" d="M78.21,163,57.74,150.11l12.09-19.26q2.6-4.12,5-5a4.75,4.75,0,0,1,4.42.37l.31.19a4.14,4.14,0,0,1,2,2.81,6.29,6.29,0,0,1-.21,3.24,9.5,9.5,0,0,1,1.48-1.2,10.88,10.88,0,0,1,1.84-.91,4.6,4.6,0,0,1,2.35-.26,6.27,6.27,0,0,1,2.54,1l.33.21q5.93,3.72.49,12.36ZM73,136.14l-5.71,9.08L70.18,147l5.7-9.08c.88-1.39.84-2.39-.11-3l-.06,0C74.78,134.34,73.87,134.74,73,136.14Zm7.79,4.2-6,9.58,3.52,2.21,6-9.58c1-1.61.94-2.79-.24-3.52L84,139Q82.31,137.92,80.79,140.34Z" transform="translate(-32.34 -31.27)"/><path class="cls-1" d="M98.87,119l6.07,5.64-6.28,6.76L81,115l15-16.08q6.93-7.45,11.47-3.22l.26.24A5.13,5.13,0,0,1,109,97.79a4.52,4.52,0,0,1,.32,2,8.33,8.33,0,0,1-.35,1.8,8.18,8.18,0,0,1-.65,1.51,6.74,6.74,0,0,1,3.94-1.3,5.36,5.36,0,0,1,3.66,1.58l2.62,2.43a6.08,6.08,0,0,0,2.3,1.52l.12.12-6.41,6.9a2.06,2.06,0,0,1-1.13-.65l-2.07-1.93a4.06,4.06,0,0,0-3.08-1.33,5.56,5.56,0,0,0-3.33,2.07Zm-7.33-6.81,3,2.83,7.21-7.76q1.9-2,.38-3.46l0,0c-1-.93-2.14-.71-3.4.65Z" transform="translate(-32.34 -31.27)"/><path class="cls-1" d="M110.1,85.24l21.33-16.12L135,73.84,120.92,84.48l1.82,2.41,13.79-10.42,3.55,4.69L126.29,91.58l2,2.64,14.29-10.79,3.64,4.82-21.54,16.28Z" transform="translate(-32.34 -31.27)"/><path class="cls-1" d="M172.76,74l-3.45-2.62L157,77.59l.11,4.32-8.34,4.24-.3-27,11.06-5.62,22.23,15.81Zm-8.82-6.66-7.39-5.58.24,9.21Z" transform="translate(-32.34 -31.27)"/><path class="cls-1" d="M194.14,65.7l-8.86,2.58-6.77-23.2,8.85-2.59L190,51.66l8.74-12.5,11-3.21L199.36,50.43,217,59l-11.54,3.37-14.35-7.08Z" transform="translate(-32.34 -31.27)"/><path class="cls-1" d="M245.52,56l-2.24-3.7-13.75,1.31-1.47,4.06-9.32.89,9.61-25.2,12.36-1.18,14.87,22.87Zm-5.76-9.43-4.83-7.9-3.16,8.66Z" transform="translate(-32.34 -31.27)"/><path class="cls-1" d="M259.23,55.33l2.33-24.06,22.63,2.19c3.24.31,5.48,1,6.73,2.2a4.75,4.75,0,0,1,1.64,4.12l0,.36a4.1,4.1,0,0,1-1.6,3.06,6.34,6.34,0,0,1-3,1.26,8.84,8.84,0,0,1,1.73.79,9.87,9.87,0,0,1,1.65,1.24,4.61,4.61,0,0,1,1.27,2,6.26,6.26,0,0,1,.28,2.7l0,.39q-.66,7-10.82,6Zm21.39-7.82-11.26-1.09-.4,4.14,11.26,1.09c1.89.18,2.91-.42,3-1.8v-.09C283.4,48.44,282.51,47.69,280.62,47.51Zm.26-8.85-10.67-1-.33,3.4,10.68,1c1.63.16,2.51-.32,2.62-1.44v-.07C283.29,39.44,282.52,38.81,280.88,38.66Z" transform="translate(-32.34 -31.27)"/><path class="cls-1" d="M303,36.43l8.9,2.44-4.58,16.64L323.52,60l-1.84,6.68-25.06-6.9Z" transform="translate(-32.34 -31.27)"/><path class="cls-1" d="M336.54,46.38l24.36,11-2.44,5.39-16.07-7.27-1.25,2.75,15.75,7.13-2.42,5.35-15.75-7.12-1.37,3L353.66,74l-2.49,5.5L326.57,68.4Z" transform="translate(-32.34 -31.27)"/><path class="cls-1" d="M369.36,91.72l-2.44-1.66q-12.21-8.3-7.39-15.39l.19-.26,8.38,5.69q-1.69,3,3.08,6.22l.25.16a21.92,21.92,0,0,0,2.65,1.59,5.35,5.35,0,0,0,1.8.59,2.2,2.2,0,0,0,1.06-.14,1.87,1.87,0,0,0,.66-.6v0a1.61,1.61,0,0,0,.33-1.1,3.2,3.2,0,0,0-.94-1.5,19.19,19.19,0,0,0-2.87-2.4l-3.63-2.63q-9.63-6.93-5.72-12.68l.16-.24a7,7,0,0,1,1.58-1.69,5.67,5.67,0,0,1,2.2-.93,7.42,7.42,0,0,1,3,0,17.5,17.5,0,0,1,3.91,1.38,35.48,35.48,0,0,1,5,2.9L383,70.69q12.15,8.25,7.86,14.56l-.15.22-8.3-5.64q1.2-2.3-3.4-5.41l-.27-.18a16.64,16.64,0,0,0-3.05-1.75,3.12,3.12,0,0,0-1.62-.34,1.33,1.33,0,0,0-.74.57l0,0a1.31,1.31,0,0,0-.23.94,3.29,3.29,0,0,0,.93,1.39,16.45,16.45,0,0,0,2.62,2.16l3.54,2.52q5.57,4,7.05,7.09a5.78,5.78,0,0,1-.57,6.11l-.26.37a8.3,8.3,0,0,1-1.63,1.82,6.06,6.06,0,0,1-2.31,1.1,7.89,7.89,0,0,1-3.2.11,17.1,17.1,0,0,1-4.29-1.43A37.82,37.82,0,0,1,369.36,91.72Z" transform="translate(-32.34 -31.27)"/><path class="cls-1" d="M392,109.16l12.24-12.61-7.48-7.26,4.59-4.73,21.59,21-4.6,4.74L410.81,103l-12.24,12.61Z" transform="translate(-32.34 -31.27)"/><path class="cls-1" d="M428.79,112.52l15.82,21.56-4.76,3.5-10.44-14.22L427,125.14l10.23,13.94-4.74,3.48-10.23-13.94-2.67,2L430.15,145l-4.87,3.58-16-21.77Z" transform="translate(-32.34 -31.27)"/><path class="cls-1" d="M439.2,175.33l2.67-3.41-6.09-12.4-4.32.06-4.12-8.4,27,.08,5.47,11.14-16.12,22ZM446,166.6l5.68-7.31-9.22.11Z" transform="translate(-32.34 -31.27)"/><path class="cls-1" d="M445,187.71l23.43-5.94,3.12,12.28-11.34,10.52,15,4,3,11.78-23.43,5.94-2.24-8.85,14.61-3.71-16.7-4.51-1.16-4.57,12.54-11.89-14.61,3.71Z" transform="translate(-32.34 -31.27)"/><path class="cls-1" d="M471.58,255.8a6.82,6.82,0,0,1-9.5.23,7.31,7.31,0,0,1-.24-9.76,6.34,6.34,0,0,1,4.71-2.07,6.27,6.27,0,0,1,4.79,1.84,7.36,7.36,0,0,1,.24,9.76Z" transform="translate(-32.34 -31.27)"/><path class="cls-1" d="M468.15,278.46l11.34,2.12-1.7,9.1-10.63-2a7.65,7.65,0,0,0-2.32-.11,6.85,6.85,0,0,0-2.21.68,5,5,0,0,0-2,2,12,12,0,0,0-1.36,7.27,5,5,0,0,0,1.13,2.54,6.61,6.61,0,0,0,1.81,1.45,8.07,8.07,0,0,0,2.19.74l10.64,2-1.7,9.07L462,311.17a15.49,15.49,0,0,1-3.07-.91,12.11,12.11,0,0,1-3.1-2,11.26,11.26,0,0,1-2.66-3.24,13.42,13.42,0,0,1-1.4-5,23.24,23.24,0,0,1,.35-6.94l.24-1.27a24.18,24.18,0,0,1,2.2-6.76,13.88,13.88,0,0,1,3.12-4.2,11,11,0,0,1,3.67-2.06,12.09,12.09,0,0,1,3.58-.67A17.44,17.44,0,0,1,468.15,278.46Z" transform="translate(-32.34 -31.27)"/><path class="cls-1" d="M470.59,323l-3.8,9.61-18,8,12.78,5.05-3.37,8.52-22.48-8.89,3.4-8.58L458.36,328l-13.62-5.39,3.37-8.52Z" transform="translate(-32.34 -31.27)"/><path class="cls-1" d="M433.12,350.31l20.38,13-12.24,19.17c-1.74,2.74-3.41,4.41-5,5a4.75,4.75,0,0,1-4.42-.41l-.3-.19a4.12,4.12,0,0,1-2-2.82,6.29,6.29,0,0,1,.24-3.24,8.94,8.94,0,0,1-1.49,1.19,10.29,10.29,0,0,1-1.85.9,4.6,4.6,0,0,1-2.35.24,6.42,6.42,0,0,1-2.53-1l-.33-.21q-5.89-3.76-.4-12.36Zm-2.74,22.6,6.08-9.53L433,361.15l-6.08,9.53c-1,1.6-.95,2.78.21,3.53l.09.05Q428.83,375.33,430.38,372.91Zm7.76,4.26,5.77-9L441,366.3l-5.77,9c-.88,1.39-.85,2.38.1,3l.06,0C436.35,379,437.25,378.56,438.14,377.17Z" transform="translate(-32.34 -31.27)"/><path class="cls-1" d="M412.13,394.1l-6-5.69,6.33-6.71L430,398.29l-15.07,16q-7,7.39-11.49,3.14l-.26-.24a5.17,5.17,0,0,1-1.3-1.9,4.33,4.33,0,0,1-.3-2,8.53,8.53,0,0,1,.36-1.81,9.21,9.21,0,0,1,.66-1.5,6.76,6.76,0,0,1-3.95,1.28,5.42,5.42,0,0,1-3.65-1.61l-2.6-2.45a6,6,0,0,0-2.29-1.54l-.12-.12,6.46-6.85a2,2,0,0,1,1.13.66l2,1.94a4.13,4.13,0,0,0,3.08,1.36,5.6,5.6,0,0,0,3.34-2.05Zm7.28,6.86-3-2.85-7.27,7.7c-1.28,1.36-1.41,2.51-.41,3.46l0,0q1.49,1.4,3.4-.63Z" transform="translate(-32.34 -31.27)"/><path class="cls-1" d="M400.68,427.79l-21.45,16L375.7,439l14.15-10.54L388,426.06l-13.86,10.32-3.51-4.72,13.86-10.32-2-2.66L368.2,429.37l-3.61-4.84,21.65-16.13Z" transform="translate(-32.34 -31.27)"/><path class="cls-1" d="M337.92,438.64l3.43,2.65,12.35-6.17-.08-4.32,8.37-4.18.11,27L351,459.13l-22.11-16Zm8.78,6.73,7.35,5.63-.17-9.21Z" transform="translate(-32.34 -31.27)"/><path class="cls-1" d="M316.5,446.74l8.88-2.52L332,467.47,323.11,470l-2.61-9.19-8.83,12.44-11,3.14L311.17,462l-17.58-8.72L305.16,450l14.3,7.19Z" transform="translate(-32.34 -31.27)"/><path class="cls-1" d="M265,456l2.22,3.71L281,458.53l1.5-4,9.32-.82L282,478.79l-12.36,1.09-14.71-23Zm5.69,9.47,4.78,7.93,3.22-8.63Z" transform="translate(-32.34 -31.27)"/><path class="cls-1" d="M251.31,456.64l-2.5,24-22.62-2.35c-3.23-.34-5.46-1.09-6.71-2.25a4.79,4.79,0,0,1-1.61-4.14l0-.35a4.11,4.11,0,0,1,1.62-3,6.31,6.31,0,0,1,3-1.24,9.49,9.49,0,0,1-1.73-.8,11,11,0,0,1-1.64-1.25,4.79,4.79,0,0,1-1.26-2,6.49,6.49,0,0,1-.26-2.71l0-.39q.74-6.95,10.87-5.89Zm-21.44,7.67,11.25,1.17.43-4.14-11.25-1.17q-2.84-.3-3.06,1.77v.1C227.1,463.35,228,464.11,229.87,464.31Zm-.33,8.85,10.66,1.11.36-3.4-10.67-1.11c-1.64-.17-2.51.31-2.63,1.43v.06C227.14,472.35,227.9,473,229.54,473.16Z" transform="translate(-32.34 -31.27)"/><path class="cls-1" d="M207.38,475.22l-8.88-2.51,4.69-16.6-16.13-4.56,1.88-6.66L214,452Z" transform="translate(-32.34 -31.27)"/><path class="cls-1" d="M174,465l-24.28-11.2,2.48-5.37,16,7.39,1.26-2.74-15.69-7.24,2.46-5.34,15.7,7.24,1.38-3L157,437.27l2.53-5.49,24.51,11.31Z" transform="translate(-32.34 -31.27)"/><path class="cls-1" d="M141.45,419.46l2.43,1.67q12.15,8.39,7.27,15.44l-.18.27-8.35-5.76q1.73-3-3-6.24l-.24-.16a21.86,21.86,0,0,0-2.64-1.61,5.48,5.48,0,0,0-1.8-.61,2.2,2.2,0,0,0-1.06.14,1.68,1.68,0,0,0-.66.59l0,0a1.63,1.63,0,0,0-.34,1.09,3.4,3.4,0,0,0,.93,1.51,19.87,19.87,0,0,0,2.85,2.42l3.62,2.65q9.59,7,5.63,12.73l-.17.24a7.13,7.13,0,0,1-1.59,1.68,5.71,5.71,0,0,1-2.21.91,7.59,7.59,0,0,1-2.95-.07A17.56,17.56,0,0,1,135,445a36.4,36.4,0,0,1-5-2.94l-2.38-1.64q-12.09-8.34-7.75-14.63l.15-.21,8.26,5.7q-1.22,2.28,3.35,5.43l.27.19a16.8,16.8,0,0,0,3,1.76,3,3,0,0,0,1.6.36,1.28,1.28,0,0,0,.75-.57l0,0a1.28,1.28,0,0,0,.24-.94,3.41,3.41,0,0,0-.91-1.4,17.77,17.77,0,0,0-2.61-2.18l-3.53-2.55q-5.53-4.05-7-7.13a5.76,5.76,0,0,1,.61-6.11l.26-.37a8.53,8.53,0,0,1,1.64-1.81,6,6,0,0,1,2.33-1.08,7.72,7.72,0,0,1,3.2-.09,17.17,17.17,0,0,1,4.28,1.46A38.91,38.91,0,0,1,141.45,419.46Z" transform="translate(-32.34 -31.27)"/><path class="cls-1" d="M119,401.85l-12.34,12.52,7.43,7.32-4.63,4.7L88,405.28l4.63-4.7,7.43,7.31,12.33-12.52Z" transform="translate(-32.34 -31.27)"/><path class="cls-1" d="M82.19,398.24,66.52,376.57l4.79-3.47,10.34,14.3,2.45-1.77L74,371.62l4.77-3.44,10.12,14,2.69-1.94L81.06,365.74,86,362.2l15.82,21.88Z" transform="translate(-32.34 -31.27)"/><path class="cls-1" d="M72.21,335.33l-2.69,3.39,6,12.44,4.32,0,4.06,8.43-27-.27-5.39-11.18,16.29-21.88ZM65.36,344l-5.73,7.27,9.22,0Z" transform="translate(-32.34 -31.27)"/><path class="cls-1" d="M66.48,322.92,43,328.69l-3-12.3L51.4,306l-15-4.08-2.91-11.8L57,284.3l2.18,8.86-14.64,3.61,16.66,4.63L62.31,306,49.69,317.78l14.64-3.6Z" transform="translate(-32.34 -31.27)"/><path class="cls-1" d="M40.43,254.64a6.79,6.79,0,0,1,9.5-.16,7.3,7.3,0,0,1,.16,9.76,6.76,6.76,0,0,1-9.5.16,6.78,6.78,0,0,1-1.93-4.84A6.71,6.71,0,0,1,40.43,254.64Z" transform="translate(-32.34 -31.27)"/><path id="T" class="cls-1" d="M356,194.43l-81.57,32.62a9.51,9.51,0,0,0-3.11,2L256,244.43,240.68,229.1a9.51,9.51,0,0,0-3.11-2L156,194.43h0a29.45,29.45,0,0,0,14.29,25.24l69,41.42v29.17a25.71,25.71,0,0,0,7.53,18.18l9.14,9.13,9.14-9.13a25.71,25.71,0,0,0,7.53-18.18V261.09l69-41.42A29.45,29.45,0,0,0,356,194.43Z" transform="translate(-32.34 -31.27)"/></svg>